# xmcd
#
# Track frame offsets:
#	150
#	13523
#	28626
#	39841
#	54051
#	66915
#	81301
#	92217
#	103698
#	118064
#	133046
#	147517
#	161325
#	174536
#	187048
#	199689
#	218815
#	231274
#	246180
#	259508
#	273827
#	285845
#	301069
#	312258
#	325253
#
# Disc length: 4494 seconds
#
# Revision: 2
# Processed by: cddbd v1.5.2PL0 Copyright (c) Steve Scherf et al.
# Submitted via: audiograbber 1.83.01
#
DISCID=58118c19
DTITLE=Various Artist - Legends Of Acoustic Guitar - Laid Back Licks and Playful Picks -
DTITLE=CD3
DYEAR=2013
DGENRE=Blues
TTITLE0=Mississippi John Hurt - Stack O'Lee
TTITLE1=Mississippi Fred McDowell - Shake 'Em On Down
TTITLE2=Doc Watson - Way Down Town
TTITLE3=Charley Patton - Mississippi Boweavil Blues
TTITLE4=Leonard Kwan - Opihi Moemoe
TTITLE5=Leadbelly - Alberta
TTITLE6=Davey Graham - Angi
TTITLE7=Oscar Aleman Trio - Jeepers Creepers
TTITLE8=Skip James - Cypress Grove Blues
TTITLE9=Roy Smeck's Serenaders - Guitarese
TTITLE10=John Dilleshaw and The String Marvel - Spanish Fandango
TTITLE11=Memphis Minnie - Hoodo Lady
TTITLE12=Baden Powell - Insonia
TTITLE13=Blind Boy Fuller - When You Are Gone
TTITLE14=Eddie Lang - Melody Man's Dream
TTITLE15=Black Ace - I Am The Black Ace
TTITLE16=Blind Joe Taggart - The Storm Is Passing Over
TTITLE17=Mississippi Bracey - You Scolded And Drove Me From Your Door
TTITLE18=Laurindo Almeida - Amor Flamengo
TTITLE19=Buddy Moss - Hard Road Blues
TTITLE20=Freddie Green - Topsy
TTITLE21=Arthur 'Big Boy' Crudup - Black Pony Blues
TTITLE22=Lonnie Donegan - Rock Island Line
TTITLE23=Robert Petway - Catfish Blues
TTITLE24=Andrés Segovia - Antano
EXTD=
EXTT0=
EXTT1=
EXTT2=
EXTT3=
EXTT4=
EXTT5=
EXTT6=
EXTT7=
EXTT8=
EXTT9=
EXTT10=
EXTT11=
EXTT12=
EXTT13=
EXTT14=
EXTT15=
EXTT16=
EXTT17=
EXTT18=
EXTT19=
EXTT20=
EXTT21=
EXTT22=
EXTT23=
EXTT24=
PLAYORDER=
